# xmcd
#
# Track frame offsets:
#	150
#	38528
#	77131
#	118362
#	173897
#
# Disc length: 3352 seconds
#
# Revision: 0
# Processed by: cddbd v1.5.2PL0 Copyright (c) Steve Scherf et al.
# Submitted via: audiograbber 1.83.01
#
DISCID=390d1605
DTITLE=Grateful Dead - 93-06-22 Deer Creek Music Centre, Noblesville IN
DYEAR=1900
DGENRE=
TTITLE0=Victim Or The Crime
TTITLE1=Crazy Fingers
TTITLE2=Looks Like Rain
TTITLE3=He's Gone
TTITLE4=Drums
EXTD=
EXTT0=
EXTT1=
EXTT2=
EXTT3=
EXTT4=
PLAYORDER=
